# xmcd
#
# Track frame offsets:
#	150
#	29297
#	52267
#	74998
#	92445
#	111843
#	138947
#	162403
#	176780
#	196856
#	221991
#	257253
#
# Disc length: 3659 seconds
#
# Revision: 49
# Processed by: cddbd v1.5.2PL0 Copyright (c) Steve Scherf et al.
# Submitted via: Jack! The Knife 20 Magnifico
#
DISCID=b50e490c
DTITLE=Dire Straits - On Every Street
DYEAR=1991
DGENRE=Rock
TTITLE0=Calling Elvis
TTITLE1=On Every Street
TTITLE2=When It Comes To You
TTITLE3=Fade To Black
TTITLE4=The Bug
TTITLE5=You And Your Friend
TTITLE6=Heavy Fuel
TTITLE7=Iron Hand
TTITLE8=Ticket To Heaven
TTITLE9=My Parties
TTITLE10=Planet Of New Orleans
TTITLE11=How Long
EXTD=Mark Knopfler and Dire Straits
EXTT0=Mark Knopfler
EXTT1=Mark Knopfler
EXTT2=Mark Knopfler
EXTT3=Mark Knopfler
EXTT4=Mark Knopfler
EXTT5=Mark Knopfler
EXTT6=Mark Knopfler
EXTT7=Mark Knopfler
EXTT8=Mark Knopfler
EXTT9=Mark Knopfler
EXTT10=Mark Knopfler
EXTT11=Mark Knopfler
PLAYORDER=
